<?xml version="1.0" encoding="UTF-8"?>
<svg width="233px" height="233px" viewBox="0 0 233 233" version="1.1" xmlns="http://www.w3.org/2000/svg" xmlns:xlink="http://www.w3.org/1999/xlink">
    <!-- Generator: Sketch 54.1 (76490) - https://sketchapp.com -->
    <title>DOI</title>
    <desc>Created with Sketch.</desc>
    <g id="DOI" stroke="none" stroke-width="1" fill="none" fill-rule="evenodd">
        <circle id="Oval" fill="#000000" cx="116.5" cy="116.5" r="116.5"></circle>
        <rect id="Rectangle" fill="#FFFFFF" x="67" y="46" width="21" height="108"></rect>
        <rect id="Rectangle" fill="#FFFFFF" x="180" y="85" width="21" height="69"></rect>
        <circle id="Oval" fill="#FFFFFF" cx="190" cy="58" r="13"></circle>
        <path d="M132,155.34589 C153.262963,155.34589 170.5,140.762963 170.5,119.5 C170.5,98.2370371 153.262963,82.3058223 132,82.3058223 C110.737037,82.3058223 93.5,98.2370371 93.5,119.5 C93.5,140.762963 110.737037,155.34589 132,155.34589 Z" id="Oval" fill="#FFFFFF"></path>
        <path d="M132.367454,134.528727 C140.927868,134.528727 147.867454,127.657678 147.867454,119.097265 C147.867454,110.536851 140.927868,103.122985 132.367454,103.122985 C123.807041,103.122985 116.867454,110.536851 116.867454,119.097265 C116.867454,127.657678 123.807041,134.528727 132.367454,134.528727 Z" id="Oval" fill="#000000"></path>
        <path d="M45,154 C58.5409314,154.515072 79,137.893063 79,119.115382 C79,100.3377 63.7776815,82.8415033 45,82.8415033 C26.2223185,82.8415033 10.6332816,99.2481368 10.6499015,119.115382 C10.6499015,137.893063 21.2974309,154.968795 45,154 Z" id="Oval" fill="#FFFFFF"></path>
        <path d="M49.8674542,135.656488 C58.4278679,135.656488 65.3674542,127.887523 65.3674542,117.791442 C65.3674542,107.695362 58.4278679,102.122985 49.8674542,102.122985 C41.3070406,102.122985 34.3674542,110.231029 34.3674542,118.791442 C34.3674542,127.351856 41.3070406,135.656488 49.8674542,135.656488 Z" id="Oval" fill="#000000"></path>
    </g>
</svg>