<?xml version="1.0" encoding="UTF-8"?>
<svg width="385px" height="388px" viewBox="0 0 385 388" version="1.1" xmlns="http://www.w3.org/2000/svg" xmlns:xlink="http://www.w3.org/1999/xlink">
    <!-- Generator: Sketch 53.1 (72631) - https://sketchapp.com -->
    <title>GScholar</title>
    <desc>Created with Sketch.</desc>
    <g id="Page-1" stroke="none" stroke-width="1" fill="none" fill-rule="evenodd">
        <g id="GScholar" fill="#000000">
            <path d="M41,0 L344,0 C366.643675,-4.15957557e-15 385,18.3563253 385,41 L385,347 C385,369.643675 366.643675,388 344,388 L41,388 C18.3563253,388 2.77305038e-15,369.643675 0,347 L0,41 C-2.77305038e-15,18.3563253 18.3563253,4.15957557e-15 41,0 Z M45.8557926,117.309953 L115.44257,117.309953 C113.616941,130.158894 114.447833,140.169081 117.935247,147.340514 C123.166368,158.097664 132.778952,172.76761 149.761955,180.552266 C161.083957,185.742037 174.77204,187.733234 190.826204,186.525856 C188.145305,191.710926 186.804856,197.803454 186.804856,204.803438 C186.804856,211.803423 190.358907,219.570405 197.467009,228.104385 C178.263608,228.104385 158.845657,231.860181 139.213156,239.371774 C109.764405,250.639163 90.2325473,278.161645 94.6023469,305.447732 C98.9721465,332.733819 133.536501,349.154993 160.538969,352.260886 C187.541438,355.366779 229.232901,347.879493 247.718534,335.579923 C266.204168,323.280353 281.345161,298.142887 281.345161,278.161645 C281.345161,258.180403 274.723756,243.116648 256.371533,228.104385 C238.019311,213.092122 223.847304,204.888508 223.847304,194 C223.847304,183.111492 237.298423,173.476038 247.718534,163.421052 C258.138646,153.366066 268.151502,135.161298 268.151502,122.585544 C268.151502,114.201707 265.323342,101.080606 259.667022,83.2222387 L308.963605,44.3644918 C308.963605,47.2308806 308.963605,51.1731405 308.963605,56.1912714 C308.963605,63.7184678 301.437972,69.2446425 301.437972,77.8297657 C301.437972,83.5531812 302.070179,88.5119698 303.334592,92.7061316 C300.649205,123.209689 299.306512,143.424986 299.306512,153.352022 C299.306512,168.242577 301.397795,188.471917 313.018607,188.471917 C324.639418,188.471917 327.364979,178.608856 327.364979,153.352022 C327.364979,136.514134 326.088073,116.298837 323.534261,92.7061316 C326.883859,80.6226721 326.269603,70.6886141 321.691495,62.9039577 C317.113387,55.1193013 317.113387,45.569873 321.691495,34.255673 L334.599607,23.6155503 L152.874924,23.6155503 L45.8557926,117.309953 Z" id="Combined-Shape"></path>
            <path d="M194.625263,176.260309 C221.859882,173.016335 231.326204,146.78621 231.326204,116.962834 C231.326204,87.1394573 210.763944,60.3424065 188.396412,60.3424065 C166.028879,60.3424065 150.326204,87.1394573 150.326204,116.962834 C150.326204,146.78621 167.390645,179.504283 194.625263,176.260309 Z" id="Oval" transform="translate(190.826204, 118.412943) rotate(-13.000000) translate(-190.826204, -118.412943) "></path>
            <path d="M193.273451,349.753608 C210.546156,347.938174 226.342624,331.941546 240.662854,301.763724 C241.242533,291.679774 238.481813,278.35645 232.380693,261.793751 C221.693826,232.782134 210.806833,223.995723 186.506304,223.995723 C162.205775,223.995723 143.590421,252.926147 143.590421,285.281156 C143.590421,317.636165 159.26549,353.327989 193.273451,349.753608 Z" id="Oval" transform="translate(192.164361, 286.998768) rotate(-84.000000) translate(-192.164361, -286.998768) "></path>
        </g>
    </g>
</svg>