<?xml version="1.0" encoding="UTF-8"?>
<svg width="141px" height="141px" viewBox="0 0 141 141" version="1.1" xmlns="http://www.w3.org/2000/svg" xmlns:xlink="http://www.w3.org/1999/xlink">
    <!-- Generator: Sketch 53.1 (72631) - https://sketchapp.com -->
    <title>Figshare</title>
    <desc>Created with Sketch.</desc>
    <g id="Page-1" stroke="none" stroke-width="1" fill="none" fill-rule="evenodd">
        <g id="Figshare" fill-rule="nonzero">
            <path d="M32.2452148,12.0034752 C31.10119,12.0425423 29.9566217,12.4126861 28.9608168,13.1344595 C26.3137259,15.060835 25.7161814,18.7742699 27.6450018,21.4343462 C29.5756314,24.0861971 33.2905878,24.6782165 35.9408038,22.7452607 C38.5943093,20.8254654 39.194363,17.1047304 37.2617597,14.4479443 C36.0562468,12.7895096 34.1519216,11.9383632 32.2452148,12.0034752 L32.2452148,12.0034752 Z M108.755233,12.0034752 C106.849149,11.9383632 104.947593,12.7895096 103.743828,14.4479443 C101.80958,17.1030853 102.398922,20.8188851 105.051934,22.7452607 C107.704946,24.6716363 111.421198,24.0894872 113.355446,21.4343462 C115.281471,18.7742699 114.691924,15.060835 112.042201,13.1344595 C111.044237,12.4126861 109.898884,12.0425423 108.755233,12.0034752 Z M95.653622,16.6456535 C93.7053263,16.5052318 91.7716795,17.5207275 90.8272532,19.3677291 C89.5736104,21.8320422 90.5498018,24.8521819 93.0194221,26.1073694 C95.4893715,27.3707823 98.5108933,26.3899106 99.7526938,23.9173722 C101.010942,21.449769 100.036314,18.4347685 97.5708053,17.1828711 C96.9544289,16.8678405 96.3030531,16.6924617 95.653622,16.6456535 Z M84.204489,22.8635003 C82.5826127,23.0028416 81.1245357,24.0900018 80.5911372,25.7346587 C79.8792813,27.9242453 81.0787914,30.2839938 83.2715959,30.9963086 C85.4657175,31.7069783 87.8293542,30.5075179 88.5374271,28.3179313 C89.2504344,26.1217644 88.0434202,23.7627358 85.8543974,23.0537111 C85.3057025,22.8752211 84.745114,22.8170528 84.204489,22.8635003 Z M31.8828512,26.678003 C30.5996237,26.6786202 29.3171145,27.1702905 28.3388889,28.1482826 C26.3792785,30.1059144 26.3811812,33.2782243 28.3362573,35.2375013 C30.2971507,37.1885529 33.4653043,37.190198 35.4293241,35.2375013 C37.3760724,33.2782243 37.3844608,30.1042707 35.4293241,28.1482826 C34.4505222,27.1678229 33.1660183,26.6773858 31.8827907,26.678003 L31.8828512,26.678003 Z M76.2736191,29.3743734 C74.6579298,29.4442954 73.2624172,30.643236 73.0020713,32.3072231 C72.6989404,34.2006973 73.994134,35.9894004 75.8829865,36.2888029 C77.7802273,36.5898505 79.5702503,35.2912753 79.8638415,33.394511 C80.1722356,31.4928114 78.8724564,29.7132576 76.9752156,29.4155001 C76.73804,29.377453 76.5044315,29.3643845 76.2736191,29.3743734 Z M70.5015082,36.080599 C68.9133195,36.080599 67.6205931,37.3710529 67.6205931,38.9568992 C67.6205931,40.5493258 68.9133195,41.8331994 70.5015082,41.8331994 C72.0936445,41.8331994 73.3824248,40.5493258 73.3824248,38.9568992 C73.3824234,37.3710529 72.0936445,36.080599 70.5015082,36.080599 Z M33.8283048,39.3861595 C32.488438,39.3412557 31.1489764,39.9413702 30.3049008,41.1134818 C28.9459928,42.9707644 29.3648747,45.5834009 31.2249437,46.9354829 C33.0912629,48.2944742 35.7081519,47.8755779 37.0613032,46.012702 C38.4137966,44.1483455 38.0020083,41.5399665 36.1335509,40.1778495 C35.4365176,39.6713736 34.6322244,39.4131005 33.8283048,39.3861595 L33.8283048,39.3861595 Z M66.5771925,42.475804 C66.4199987,42.4688289 66.2608429,42.4781729 66.0991819,42.5040729 C64.8012948,42.7097065 63.919904,43.9202705 64.1306002,45.2132946 C64.3297804,46.5050026 65.535746,47.3794804 66.8367581,47.1822366 C68.1295464,46.975945 69.0026107,45.7622133 68.8027713,44.4678731 C68.6263284,43.3451137 67.6775507,42.5241993 66.5771925,42.4757974 L66.5771925,42.475804 Z M36.9559353,49.6241426 C35.6029169,49.5278468 34.2598922,50.2292397 33.6021491,51.5159717 C32.7399613,53.2279948 33.4172152,55.3234624 35.12613,56.1915652 C36.8460648,57.0744736 38.933029,56.3882338 39.8034407,54.6801589 C40.6773063,52.9599104 39.9973997,50.865018 38.2871691,49.994283 C37.8586252,49.7767642 37.4069415,49.6562425 36.9559353,49.6241426 L36.9559353,49.6241426 Z M93.3098265,56.2455445 C93.0041824,56.266983 92.6976633,56.3488548 92.4077734,56.4974453 C91.2383428,57.0893411 90.775793,58.5170963 91.3746533,59.6847662 C91.9689083,60.8376369 93.3988492,61.3016424 94.5485426,60.7155044 C95.7229076,60.121141 96.1911522,58.6991436 95.5842325,57.5281836 C95.138912,56.6616851 94.2267588,56.1812328 93.3098265,56.2455445 Z M40.4382188,57.7569508 C39.3215392,57.8554444 38.3129314,58.6055194 37.950506,59.7361752 C37.4570753,61.2437163 38.2825848,62.8682217 39.8008709,63.3553266 C41.3074791,63.8501633 42.9315857,63.0294582 43.4167925,61.5174755 C43.9102231,60.0110859 43.0826162,58.3771839 41.5715671,57.8854728 C41.195244,57.7633692 40.8104458,57.7241192 40.4382188,57.7569469 L40.4382188,57.7569508 Z M100.564799,57.7569508 C100.191667,57.7241152 99.8037842,57.7633995 99.4263098,57.8854768 C97.9213463,58.3771878 97.0942329,60.0110899 97.5810845,61.5174794 C98.0761599,63.0294621 99.7032481,63.8501672 101.209856,63.3553305 C102.719754,62.8682257 103.539877,61.2437202 103.044801,59.7361792 C102.690765,58.6055234 101.684192,57.855451 100.564799,57.7569548 L100.564799,57.7569508 Z M108.123025,60.9031449 C107.892369,60.8926165 107.655911,60.9069615 107.418859,60.9442716 C105.514216,61.2449902 104.219886,63.0314941 104.522523,64.928423 C104.820226,66.8215681 106.60624,68.1253062 108.505948,67.820146 C110.402367,67.5187694 111.695565,65.7381877 111.394573,63.8359946 C111.129765,62.1773336 109.737619,60.9767663 108.123025,60.9031449 Z M44.917644,63.9156778 C43.8262899,63.9718734 42.8760135,64.7831226 42.6894967,65.9077535 C42.4839006,67.2090029 43.3667507,68.4132551 44.6657891,68.6195468 C45.950847,68.8181066 47.1560717,67.9377881 47.3616678,66.6608857 C47.5692376,65.3616104 46.6954127,64.1451031 45.3930848,63.9388114 C45.2332751,63.9146487 45.0735523,63.9076472 44.917644,63.9156752 L44.917644,63.9156778 Z M116.010206,66.1416612 C113.710819,66.1416612 111.836605,68.0083208 111.836605,70.3160233 C111.836605,72.6275095 113.710819,74.4929557 116.010206,74.4929557 C118.321106,74.4929557 120.183807,72.6275095 120.183807,70.3160233 C120.183807,68.0083208 118.321106,66.1416612 116.010206,66.1416612 Z M124.21606,73.8529212 C121.883948,73.9580477 119.865852,75.6819087 119.48735,78.0761208 C119.05971,80.809733 120.926625,83.380153 123.66352,83.8132996 C126.393836,84.2482545 128.957003,82.3847416 129.394512,79.6517888 C129.822152,76.9142298 127.964796,74.3424529 125.23119,73.9094708 C124.889078,73.8555784 124.549219,73.8379037 124.21606,73.8529199 L124.21606,73.8529212 Z M9.44717683,84.401925 C8.67888729,84.3365302 7.88752468,84.420205 7.10852112,84.6769607 C3.98526964,85.6852234 2.27896595,89.0344795 3.29214354,92.1594522 C4.30532112,95.274719 7.65781219,96.9853445 10.7707016,95.9739562 C13.8919793,94.9553296 15.5983861,91.6112955 14.5896494,88.4863228 C13.8282859,86.1478983 11.7520453,84.5981145 9.44717683,84.401925 Z M131.553268,84.401925 C129.25088,84.5981145 127.178083,86.1478983 126.410799,88.4863228 C125.405845,91.6112955 127.103759,94.9553296 130.227175,95.9739562 C133.344014,96.9853445 136.690894,95.274719 137.70573,92.1594522 C138.722184,89.0344795 137.021927,85.6852234 133.891932,84.6769607 C133.113535,84.4202063 132.320731,84.3365289 131.553268,84.401925 Z M88.7327428,86.188367 C88.1285784,86.188367 87.5261193,86.4193755 87.0648446,86.8823808 C86.1350568,87.8044418 86.1339265,89.3120447 87.0570813,90.2316382 C87.9926258,91.1538638 89.4831758,91.1538638 90.4057279,90.2316382 C91.3309091,89.305629 91.3309091,87.80839 90.4057279,86.8823808 C89.9421492,86.4193755 89.3368532,86.188367 88.7326888,86.188367 L88.7327428,86.188367 Z M21.4796885,90.1159688 C20.8296891,90.1607805 20.1792935,90.3333232 19.5625052,90.6454756 C17.0973257,91.9031308 16.1155422,94.9232507 17.3703363,97.392828 C18.6264463,99.8584571 21.6447615,100.839102 24.1138884,99.5853955 C26.5779166,98.3252727 27.564141,95.3063464 26.3060573,92.8431849 C25.3654548,90.9964307 23.4296883,89.9815456 21.4796885,90.1159688 Z M58.9624274,90.9385032 C58.0383555,90.8757405 57.1287984,91.3542529 56.6854503,92.2237125 C56.0879058,93.3945093 56.5511148,94.8140997 57.7185717,95.4084631 C58.883397,95.9970687 60.3090404,95.5408503 60.9001704,94.3751546 C61.5021557,93.2094588 61.0325124,91.7872968 59.8747596,91.1878338 C59.5800171,91.040354 59.2704518,90.9594232 58.9624274,90.9385032 Z M52.1751863,92.8071987 C51.2524079,92.776482 50.3296531,93.1916302 49.7465826,93.9973033 C48.811696,95.2819376 49.093733,97.079216 50.3787909,98.0122991 C51.6617106,98.9447241 53.4730116,98.6631501 54.398194,97.3722646 C55.3284752,96.0940462 55.0425526,94.2915654 53.7634159,93.3546987 C53.2817657,93.0045451 52.7288537,92.8256248 52.1751863,92.8071987 Z M88.8278315,92.8071987 C88.2738483,92.825663 87.7214981,93.0050386 87.2396019,93.3546987 C85.9547072,94.291564 85.670657,96.0940462 86.6022527,97.3722646 C87.5287523,98.6631501 89.3367229,98.9440042 90.6165175,98.0148693 C91.9015754,97.0784962 92.1951666,95.2766734 91.2538655,93.9973033 C90.6736726,93.1916302 89.7511363,92.7764241 88.8278315,92.8071987 Z M33.5353294,92.8971642 C32.7307124,92.9231432 31.9248139,93.1799924 31.2249437,93.686284 C29.3648747,95.0460979 28.9473087,97.6620863 30.3049008,99.5262783 C31.6554205,101.400176 34.2747977,101.810683 36.1335509,100.449058 C38.0020083,99.089902 38.4169216,96.48216 37.0613032,94.6219162 C36.2155841,93.4536094 34.8763594,92.8538726 33.5353294,92.8971642 Z M43.6840674,93.6605788 C42.7921093,93.6602709 41.9005012,93.9988879 41.219484,94.6784658 L41.2168523,94.6784658 C39.8632076,96.0361411 39.8632076,98.2397515 41.2168523,99.5982494 C42.5788854,100.961847 44.7865151,100.957241 46.1434494,99.5982494 C47.5055153,98.2397515 47.5055232,96.0349895 46.1485811,94.6784658 C45.4676336,94.0001197 44.5760255,93.6608868 43.6840674,93.6605775 L43.6840674,93.6605788 Z M87.4708972,100.644409 C87.0195292,100.676613 86.5667467,100.795755 86.1370923,101.01455 C84.4196248,101.885285 83.750821,103.980959 84.6105416,105.695285 C85.4906574,107.409118 87.5884982,108.08958 89.3007025,107.214403 C91.004683,106.339062 91.6939227,104.251449 90.8118332,102.533668 C90.1637127,101.251747 88.8250012,100.547787 87.4708972,100.644409 Z M84.9189358,109.445527 C84.3776647,109.398742 83.8201263,109.455792 83.2715959,109.633168 C81.0787914,110.347128 79.8792813,112.705601 80.5911372,114.899958 C81.3023352,117.08609 83.6596179,118.295525 85.8543974,117.580907 C88.0434202,116.863822 89.2504344,114.510447 88.5374271,112.314117 C88.0063721,110.669706 86.5427463,109.585895 84.9189358,109.445527 Z M79.2753222,119.25682 C78.9438091,119.241751 78.6054486,119.259321 78.2653315,119.313371 C75.5290941,119.751124 73.6631447,122.314408 74.0968702,125.053119 C74.528622,127.787388 77.0922824,129.652217 79.8278618,129.214628 C82.5616321,128.78543 84.4196037,126.218876 83.9860427,123.487733 C83.6104196,121.091362 81.5959146,119.36231 79.2753222,119.256822 L79.2753222,119.25682 Z M70.5015082,129.114381 C67.220359,129.114381 64.5623507,131.781311 64.5623507,135.059762 C64.5623507,138.338384 67.220359,141 70.5015082,141 C73.786605,141 76.4406658,138.338384 76.4406658,135.059762 C76.4406658,131.781311 73.786605,129.114381 70.5015082,129.114381 Z" id="Shape" fill="#4E5D6E"></path>
            <path d="M70.5015057,0 C67.2203566,0 64.5623485,2.66005194 64.5623485,5.9404159 C64.5623485,9.21913474 67.2203566,11.8808318 70.5015057,11.8808318 C73.7866024,11.8808318 76.440663,9.21913474 76.440663,5.9404159 C76.440663,2.66005194 73.7866024,0 70.5015057,0 Z M62.1877142,11.7188905 C61.8555578,11.7042542 61.5164841,11.7235232 61.1751538,11.7780121 C58.4376007,12.2156133 56.5678684,14.7727417 57.0066927,17.5102182 C57.4404182,20.2476922 60.0032969,22.1162375 62.7428237,21.6769912 C65.4741267,21.2476155 67.3372799,18.6707446 66.9112848,15.9447851 C66.5205496,13.5494943 64.512808,11.8213409 62.1877142,11.7188907 L62.1877142,11.7188905 Z M56.7933872,23.227001 C56.2527925,23.1804771 55.6945778,23.239109 55.1460474,23.4172173 C52.953243,24.1262629 51.7537948,26.4853612 52.463019,28.6815928 C53.1761908,30.871244 55.5321575,32.0707398 57.726279,31.3600491 C59.9120122,30.6477133 61.1250502,28.2878952 60.4118785,26.098244 C59.8755194,24.4535386 58.41517,23.366578 56.7933872,23.227001 Z M53.0335485,33.4113051 C52.5822371,33.4443391 52.1290691,33.5652262 51.6997437,33.7840269 C49.9939541,34.6526488 49.3065026,36.7469858 50.1757628,38.4546176 C51.0507798,40.1737652 53.1454546,40.8503191 54.860784,39.9866325 C56.5678894,39.1048496 57.2616319,37.0106152 56.3899044,35.2980481 C55.7296942,34.0111557 54.3874827,33.3122125 53.0335485,33.4113051 L53.0335485,33.4113051 Z M107.177279,39.7501475 C106.373537,39.7770879 105.570135,40.0353701 104.869463,40.5418609 C102.994427,41.8941473 102.581487,44.512474 103.941711,46.3768854 C105.301935,48.2398163 107.913416,48.6600201 109.770359,47.3074046 C111.640462,45.9439313 112.053402,43.3348582 110.698112,41.4775207 C109.85414,40.3053746 108.51685,39.7052437 107.177279,39.7501475 Z M97.3163771,40.3773491 C96.4251178,40.3777598 95.5363255,40.7193269 94.8595032,41.4004055 C93.4935227,42.7526919 93.4935227,44.9644285 94.8595032,46.3203342 C96.2180822,47.6800237 98.4165208,47.6800237 99.7783894,46.3203342 C101.133679,44.9644285 101.13553,42.7592724 99.783521,41.4004055 C99.100942,40.7176818 98.207626,40.3769372 97.3163679,40.3773491 L97.3163771,40.3773491 Z M118.803739,40.8785953 C118.155109,40.924198 117.505502,41.0994517 116.889125,41.4132585 C114.420327,42.6668379 113.441793,45.6900081 114.691817,48.1608099 C115.946775,50.624044 118.97387,51.6027651 121.432799,50.345731 C123.903241,49.0829389 124.885784,46.0679127 123.627536,43.6084622 C122.680149,41.7589384 120.749628,40.741794 118.803739,40.8785953 Z M51.9695884,42.4363161 C51.4143777,42.4553995 50.859884,42.6340382 50.3787891,42.9838309 C49.0937313,43.9149673 48.8116943,45.7234659 49.7465808,47.0066574 C50.6794937,48.2854071 52.4790141,48.5784644 53.763414,47.64157 C55.0425507,46.7091175 55.3284733,44.910366 54.3981921,43.6238842 C53.8199533,42.8167489 52.8949393,42.4045062 51.9695884,42.4363161 Z M89.0282835,42.4363161 C88.1051603,42.4045062 87.1822372,42.8167489 86.6048207,43.6238842 C85.6622037,44.910366 85.9547041,46.7091794 87.2395988,47.6389997 C88.5246553,48.5785262 90.3255547,48.2854071 91.2538622,47.0066574 C92.1951633,45.7234659 91.9015721,43.9116771 90.6165143,42.9838309 C90.1365905,42.6340382 89.5821587,42.4554021 89.0282835,42.4363161 Z M8.43204585,44.7549024 C6.12701548,44.9579007 4.05202668,46.5020381 3.29214353,48.8394208 C2.27896598,51.9644856 3.9852696,55.3139445 7.10852097,56.3247046 C10.2245353,57.3440193 13.5758135,55.6339409 14.589649,52.5126598 C15.5997014,49.388253 13.8912591,46.0445717 10.7732713,45.0196636 C9.99422667,44.7687832 9.2003893,44.6872367 8.43204585,44.7549024 Z M132.565823,44.7549024 C131.798255,44.687242 131.004327,44.7687872 130.227171,45.0196636 C127.103755,46.0412815 125.395972,49.388253 126.410794,52.5126598 C127.43384,55.6339409 130.778381,57.3440193 133.891927,56.3247046 C137.021922,55.3139445 138.722192,51.9644856 137.705725,48.8394208 C136.944605,46.5020381 134.868525,44.9579007 132.565823,44.7549024 Z M82.3746808,45.3332638 C81.4579169,45.268025 80.5421413,45.7486559 80.1002735,46.6185124 C79.502729,47.7900004 79.9685078,49.2115463 81.1359646,49.8059272 C82.2988161,50.4003081 83.7162976,49.9330092 84.3149934,48.7674475 C84.9125379,47.6068173 84.4498447,46.1797188 83.274164,45.5851734 C82.985836,45.4367009 82.6802683,45.3550109 82.3746808,45.3332638 L82.3746808,45.3332638 Z M52.2651323,50.0706884 C51.6586455,50.0706884 51.0501837,50.3023617 50.5843852,50.7647226 C49.6636766,51.6953655 49.6643424,53.1841967 50.5895169,54.1166492 C51.5166731,55.0362698 53.014235,55.0426857 53.9407332,54.1166492 C54.8626261,53.1945609 54.8645998,51.6889495 53.9407332,50.7647226 C53.4774835,50.3023617 52.8716125,50.0706884 52.2651244,50.0706884 L52.2651323,50.0706884 Z M16.3320762,57.1266993 C13.9993928,57.232 11.9902151,58.954322 11.6033655,61.3474531 C11.1781928,64.087067 13.0400294,66.6518049 15.7718258,67.0847998 C18.505596,67.5225656 21.0742932,65.656859 21.505387,62.9231676 C21.9382902,60.1888181 20.0809765,57.6183841 17.3472064,57.1832506 C17.0045182,57.1294355 16.6653155,57.111655 16.3320762,57.126698 L16.3320762,57.1266993 Z M24.9902415,66.5064384 C22.6818085,66.5064384 20.8089301,68.3731531 20.8089301,70.6809237 C20.8153776,72.992478 22.6818085,74.8579792 24.9902415,74.8579792 C27.2948914,74.8579792 29.1664119,72.992478 29.1664119,70.6809237 C29.1664119,68.3731531 27.2948914,66.5064384 24.9902415,66.5064384 Z M95.8643542,72.354316 C94.7680198,72.397905 93.8186738,73.2166457 93.6387769,74.3413097 C93.4331808,75.6386492 94.3081767,76.8520259 95.5996491,77.0583236 C96.887503,77.2537636 98.1004173,76.3822212 98.3109477,75.0893248 C98.5198334,73.788037 97.6433769,72.5812605 96.3423648,72.3851626 C96.1815893,72.3583406 96.0209731,72.3480882 95.8643542,72.3543133 L95.8643542,72.354316 Z M33.1960954,73.1408887 C32.9644159,73.1304915 32.7274797,73.1417731 32.489358,73.1794502 C30.6005055,73.4763939 29.3045515,75.2590628 29.6058731,77.1611474 C29.9012736,79.0582967 31.6841831,80.3518736 33.5815884,80.0529557 C35.4845858,79.7542024 36.7812794,77.9708742 36.4753524,76.0712572 C36.2157263,74.4125473 34.8178492,73.2132554 33.1960954,73.1408926 L33.1960954,73.1408887 Z M40.9342178,77.5055903 C40.5625672,77.4731617 40.1775216,77.5124339 39.8008695,77.63412 C38.2825835,78.1258456 37.4570741,79.7490012 37.9505047,81.2636607 C38.4337377,82.77503 40.0596943,83.597773 41.5715657,83.1067054 C43.0826147,82.6195862 43.9077952,80.9847304 43.4219305,79.484877 C43.052351,78.3493762 42.049171,77.602868 40.9342178,77.5055955 L40.9342178,77.5055903 Z M100.073935,77.5055903 C98.9559287,77.6028628 97.9447814,78.3493709 97.5759414,79.4848717 C97.0923794,80.9847252 97.9213428,82.6195809 99.4263062,83.1067002 C100.936204,83.5977677 102.56617,82.7750248 103.044797,81.2636555 C103.539873,79.748996 102.71975,78.1258403 101.209853,77.6341147 C100.833201,77.5124945 100.446602,77.4731656 100.073935,77.505585 L100.073935,77.5055903 Z M47.3565266,80.0298175 C47.0521259,80.0507039 46.7475714,80.1324991 46.4596131,80.2791554 C45.2793271,80.8737008 44.8173931,82.2950203 45.4213535,83.4691406 C46.0080425,84.6304223 47.4303767,85.0891903 48.5901031,84.4999092 C49.7593692,83.9053638 50.2208703,82.4839627 49.625793,81.3202054 C49.1791146,80.4477589 48.2697272,79.9671464 47.3565266,80.0298175 Z M104.543079,84.4305063 C103.192544,84.3343394 101.850593,85.0412976 101.191863,86.3223913 C100.313556,88.0362745 101.002714,90.1350731 102.713274,91.005835 C104.425478,91.8739621 106.527287,91.1960093 107.395725,89.4841015 C108.272387,87.7715343 107.588883,85.6727344 105.871744,84.8006577 C105.444515,84.5815281 104.993258,84.4625624 104.543079,84.4305063 Z M107.467683,93.2627294 C106.12996,93.219443 104.790822,93.819191 103.936571,94.9875322 C102.579637,96.8478309 102.994427,99.4620671 104.869463,100.814846 C106.73792,102.176509 109.347757,101.765992 110.698112,99.8920389 C112.053402,98.027792 111.640462,95.4117264 109.770359,94.0518724 C109.074006,93.5455658 108.270319,93.2887064 107.467683,93.2627294 Z M74.6416979,93.7922518 C74.4835014,93.7848817 74.3214206,93.7927454 74.1585464,93.8179551 C72.8651003,94.0242529 71.9933939,95.2375269 72.1976742,96.5323987 C72.4045861,97.8201966 73.6105516,98.7044682 74.9038332,98.4988285 C76.2061611,98.2912147 77.0748451,97.0772616 76.8672753,95.7920959 C76.6964456,94.6623939 75.7490667,93.8437835 74.6416979,93.7922505 L74.6416979,93.7922518 Z M70.5015057,99.1645878 C68.913317,99.1645878 67.6205907,100.448499 67.6205907,102.040973 C67.6205907,103.630156 68.913317,104.917358 70.5015057,104.917358 C72.0936419,104.917358 73.3824221,103.630156 73.3824221,102.040973 C73.3824208,100.448499 72.0936419,99.1645878 70.5015057,99.1645878 Z M109.120163,104.297868 C107.837448,104.299316 106.554734,104.787496 105.573629,105.763051 C103.61471,107.721069 103.61471,110.894295 105.573629,112.852479 C107.535839,114.809839 110.697906,114.804739 112.666695,112.852479 C114.625614,110.894295 114.625614,107.721069 112.666695,105.763051 C111.686412,104.781738 110.402877,104.296429 109.120163,104.297868 Z M64.4107218,104.67059 C62.7939352,104.744739 61.3919751,105.94095 61.128895,107.600955 C60.8269155,109.497283 62.1208129,111.285648 64.022659,111.585224 C65.9198998,111.884635 67.7002185,110.596282 68.0035139,108.688275 C68.3138817,106.794416 67.0097235,105.010698 65.1123183,104.709148 C64.8752453,104.671968 64.6416921,104.659992 64.4107218,104.670586 L64.4107218,104.67059 Z M56.0789405,109.811582 C54.457388,109.950635 52.9978978,111.035797 52.463019,112.680256 C51.7537948,114.878625 52.9499535,117.230095 55.1460474,117.947202 C57.3446111,118.661841 59.696733,117.45237 60.4118785,115.266174 C61.1250502,113.071752 59.9120122,110.712653 57.726279,110.001798 C57.1777486,109.823632 56.6194576,109.76523 56.0789405,109.811582 Z M46.063841,114.353648 C44.1163545,114.215866 42.1837486,115.230084 41.2374724,117.078373 C39.9858034,119.544733 40.9662711,122.558013 43.4296412,123.813073 C45.8967943,125.072081 48.9209267,124.092578 50.170622,121.633292 C51.4254173,119.165616 50.4500484,116.144585 47.9784544,114.885741 C47.3619951,114.571976 46.7130023,114.399575 46.063841,114.353648 Z M32.6589757,117.119501 C30.7543085,117.054354 28.851644,117.903709 27.6450009,119.564043 C25.7161805,122.216136 26.313725,125.935007 28.9608158,127.861604 C31.616295,129.788201 35.3278393,129.20659 37.2617584,126.54808 C39.1943617,123.894013 38.594308,120.174546 35.9408025,118.247949 C34.9469727,117.525475 33.8017755,117.158592 32.6589757,117.119501 Z M108.333758,117.119501 C107.189519,117.158747 106.04681,117.527449 105.05193,118.247949 C102.398918,120.174546 101.809576,123.894013 103.743824,126.54808 C105.674783,129.20659 109.380961,129.794617 112.042197,127.861604 C114.691919,125.938297 115.281466,122.216136 113.355442,119.564043 C112.147565,117.903709 110.240821,117.054094 108.333758,117.119501 Z" id="Shape" fill="#96D325"></path>
            <path d="M89.8114275,3.02097282 C87.5041012,3.21602771 85.4314291,4.75965955 84.6781761,7.10710261 C83.6628152,10.2238688 85.3658104,13.5758322 88.4902002,14.5906315 C91.6101482,15.6087203 94.9606168,13.8976851 95.980584,10.7743399 C96.9873903,7.66086318 95.2768066,4.31404021 92.155707,3.29595127 C91.3747332,3.0406067 90.5805368,2.95595447 89.8114275,3.02097282 Z M78.6349731,11.5530176 C76.3081055,11.6570172 74.2934295,13.383192 73.9155678,15.7779211 C73.4766529,18.5098202 75.34926,21.0795079 78.0771788,21.5087828 C80.8075651,21.9413472 83.3761755,20.0809506 83.8170645,17.3506963 C84.2391994,14.6072841 82.3820773,12.0496236 79.6477427,11.6121251 C79.3065261,11.5580542 78.9673824,11.5381609 78.6349731,11.5530174 L78.6349731,11.5530176 Z M70.3194636,20.8149114 C68.0092379,20.8149114 66.1424307,22.682504 66.1424307,24.9884176 C66.1424307,27.3009101 68.0092379,29.1696343 70.3194636,29.1696343 C72.6272216,29.1696343 74.4913558,27.3009101 74.4913558,24.9884176 C74.4913558,22.682504 72.6272216,20.8149114 70.3194636,20.8149114 Z M18.1489641,26.5175048 C16.2416452,26.4547286 14.3344723,27.3110877 13.1288132,28.9691823 C11.2053527,31.6155553 11.8018075,35.3336762 14.4474702,37.2596568 C17.1015236,39.1905716 20.8177615,38.601038 22.7372753,35.9464413 C24.6766936,33.2934894 24.0905204,29.5808172 21.4288996,27.6482577 C20.437269,26.9235482 19.2933567,26.5551665 18.1489641,26.5175048 L18.1489641,26.5175048 Z M64.5410204,29.5679672 C64.3098326,29.5579673 64.0743242,29.5709935 63.8367087,29.6090855 C61.944176,29.9100714 60.6428742,31.6925498 60.9449174,33.5872805 C61.2456419,35.483656 63.0321888,36.7786755 64.9291633,36.4809791 C66.8269603,36.1816379 68.1177334,34.3998805 67.8209559,32.5002156 C67.555517,30.8365697 66.1593424,29.6378775 64.5410204,29.5679672 Z M60.8755136,37.8173234 C60.5034677,37.7852051 60.1196074,37.8236392 59.7419313,37.945823 C58.2259639,38.435953 57.4014764,40.0646477 57.896325,41.5745113 C58.3834416,43.0843748 60.0086441,43.9114695 61.5155634,43.4196948 C63.0269245,42.9295648 63.8599455,41.3041582 63.3688807,39.7910052 C62.9954003,38.6598417 61.9916525,37.9136994 60.8755136,37.8173274 L60.8755136,37.8173234 Z M22.0072578,40.7058838 C20.0593771,40.5691145 18.1229306,41.5860204 17.1773223,43.4351105 C15.9222691,45.903688 16.9042553,48.9185625 19.3699438,50.1682295 C21.8376063,51.4338504 24.860493,50.4426325 26.1148881,47.9863905 C27.3732315,45.5211024 26.3868035,42.5019306 23.9222666,41.2404215 C23.3061735,40.9266884 22.6565518,40.7514731 22.0072578,40.7058838 Z M58.4386975,45.1620786 C58.1304094,45.1848022 57.82065,45.2681572 57.5261756,45.4190672 C56.3713161,46.0106772 55.904716,47.4325265 56.4928422,48.5928859 C57.0936358,49.7672229 58.5125418,50.2299688 59.6802397,49.631122 C60.8420152,49.0368805 61.3124952,47.6106101 60.7161434,46.4495942 C60.2741857,45.5751312 59.3635616,45.093917 58.4386975,45.1620786 Z M95.5898707,49.19938 C95.0359825,49.2186036 94.4807387,49.3971793 93.998743,49.7467677 C92.7122682,50.6809752 92.423778,52.476672 93.3586931,53.7635099 C94.2996951,55.0459071 96.0973867,55.3369627 97.3789261,54.4034131 C98.6670459,53.4627912 98.9496966,51.6651207 98.0086946,50.3866709 C97.4318788,49.5795182 96.51302,49.1673498 95.5898707,49.19938 Z M103.869393,49.8110148 C103.418119,49.8432911 102.966023,49.9652288 102.537883,50.1836492 C100.822035,51.0504227 100.150111,53.1486685 101.018728,54.8685643 C101.893926,56.576289 103.979513,57.2579276 105.697006,56.3873712 C107.414499,55.5130319 108.093004,53.4166979 107.216161,51.7050258 C106.568399,50.4185576 105.223215,49.7142046 103.869393,49.8110148 Z M88.5570324,49.8983961 C87.9513654,49.8968172 87.3482476,50.1264586 86.8862195,50.5896979 C85.9582797,51.5181488 85.9557252,53.0195624 86.8939844,53.943408 C87.8085002,54.8608393 89.3050974,54.8730103 90.2304709,53.943408 C91.159661,53.0131479 91.1596689,51.5130291 90.2356036,50.597407 C89.770367,50.134152 89.1627455,49.900004 88.5570785,49.8983961 L88.5570324,49.8983961 Z M26.6649703,52.2781174 C25.0435317,52.415434 23.5856985,53.50412 23.0560144,55.148687 C22.3394052,57.3401273 23.5386274,59.6921552 25.7318858,60.4092582 C27.9244863,61.1229072 30.285484,59.9234663 30.998803,57.7339997 C31.705706,55.5372963 30.5134763,53.1750711 28.3126503,52.4734286 C27.7647871,52.2935371 27.2054502,52.2323452 26.6649703,52.2781174 L26.6649703,52.2781174 Z M113.968816,52.2781174 C113.428886,52.2323412 112.87194,52.2935384 112.323708,52.4734286 C110.127488,53.1750711 108.929437,55.5372963 109.640125,57.7339997 C110.347521,59.9234663 112.708971,61.1229072 114.901901,60.4092582 C117.09154,59.6921552 118.302957,57.3401273 117.590625,55.148687 C117.047739,53.50412 115.588606,52.415434 113.968816,52.2781174 Z M124.505221,56.9501825 C124.172759,56.9349194 123.833811,56.9530772 123.492451,57.0067218 C120.746765,57.4404375 118.888102,60.0115844 119.3257,62.7452927 C119.758363,65.4783431 122.322059,67.343612 125.057875,66.905949 C127.7904,66.4730556 129.658935,63.9089192 129.224626,61.1699478 C128.846046,58.7819832 126.832462,57.0570216 124.505221,56.9501838 L124.505221,56.9501825 Z M32.6876094,61.0902796 C31.0711127,61.1619505 29.6739156,62.3698202 29.4153862,64.022528 C29.1140023,65.9243311 30.410224,67.7045477 32.2994665,68.0058625 C34.204831,68.3109602 35.9895064,67.0074894 36.286284,65.1147324 C36.5883259,63.2181925 35.2953128,61.4320548 33.3919224,61.1313979 C33.1546978,61.0932665 32.9185378,61.0800428 32.6876094,61.0902796 L32.6876094,61.0902796 Z M135.067331,64.5622052 C131.780405,64.5622052 129.119237,67.2233808 129.119237,70.5037978 C129.119237,73.7830635 131.780405,76.4428207 135.067331,76.4428207 C138.332858,76.4428207 141,73.7842767 141,70.5012281 C141,67.224594 138.332858,64.5622052 135.067331,64.5622052 Z M38.9621554,67.622948 C37.3716646,67.622948 36.0780751,68.9175161 36.0780751,70.5012281 C36.0780751,72.0849401 37.3716646,73.3834477 38.9621554,73.3743688 C40.5462303,73.3743688 41.8359544,72.0849401 41.8359544,70.5012281 C41.8359544,68.9175161 40.5462303,67.622948 38.9621554,67.622948 Z M44.9488088,72.176799 C44.7914732,72.1699569 44.629842,72.1798253 44.4681278,72.2050621 C43.1836272,72.4093377 42.2894911,73.610793 42.50171,74.9060191 C42.7085002,76.2005873 43.9192999,77.074495 45.2161389,76.8771272 C46.4993234,76.6708779 47.3811831,75.4577857 47.1799863,74.1607505 C47.0000523,73.029587 46.0501562,72.2248159 44.9488088,72.1767937 L44.9488088,72.176799 Z M93.474364,79.84279 C92.5546747,79.777527 91.6349894,80.2597702 91.1892058,81.1328753 C90.599928,82.2919176 91.0607031,83.718784 92.2251108,84.3169728 C93.3934668,84.9112143 94.8195494,84.4501145 95.4150786,83.2787367 C96.0073176,82.1242997 95.5396989,80.6972069 94.3766033,80.0972089 C94.0874762,79.9481554 93.780928,79.8645438 93.474364,79.84279 L93.474364,79.84279 Z M95.7903686,86.0567909 C94.8684815,86.0263699 93.9468194,86.437237 93.3586931,87.2363713 C92.423778,88.5187684 92.7122682,90.3240468 93.998743,91.2582543 C95.2857112,92.1918039 97.0857888,91.9104522 98.0086946,90.6183511 C98.9414711,89.335954 98.6670459,87.5384466 97.3789261,86.6016075 C96.8983491,86.2513416 96.3435015,86.0750421 95.7903686,86.0567909 Z M66.1758475,93.6045665 C65.0682434,93.6514084 64.1213532,94.469161 63.9369576,95.6065126 C63.7408607,96.8913769 64.6225151,98.0966572 65.9162283,98.3126104 C67.209777,98.5182019 68.4180065,97.6348166 68.6280868,96.3389326 C68.8253353,95.0527525 67.9374085,93.8474722 66.6565271,93.6328348 C66.4934771,93.6068217 66.3340766,93.5978744 66.1758475,93.6045717 L66.1758475,93.6045665 Z M97.1424424,93.8384262 C96.2505884,93.8384262 95.3594529,94.1792356 94.6824908,94.8586742 C93.3162283,96.2160712 93.3162283,98.4192298 94.6824908,99.7774491 C96.036415,101.140767 98.2491884,101.140767 99.5998224,99.7774491 C100.960261,98.4192298 100.957962,96.2160712 99.6024546,94.8586742 C98.9246699,94.1792356 98.0343583,93.8384262 97.1425043,93.8384262 L97.1424424,93.8384262 Z M60.3819811,97.4542658 C59.2661422,97.5498839 58.2616628,98.2954434 57.896325,99.4253739 C57.4014764,100.944777 58.2175738,102.569073 59.7419313,103.059203 C61.2526343,103.547524 62.8709064,102.715454 63.3688807,101.20888 C63.8599455,99.6958915 63.0269245,98.0723362 61.5155634,97.5853299 C61.1388336,97.4627513 60.7539269,97.4223922 60.3819811,97.4542645 L60.3819811,97.4542658 Z M53.3414318,100.820826 C51.9860757,100.726103 50.6459217,101.43061 49.9895235,102.712267 C49.1251835,104.429696 49.8076772,106.51688 51.5138191,107.392043 C53.2263769,108.26704 55.3244863,107.586675 56.2049483,105.868095 C57.0704398,104.159219 56.3835662,102.065888 54.6780824,101.190891 C54.2478444,100.973252 53.7932167,100.852402 53.3414318,100.820826 Z M17.7325463,102.609471 C16.588613,102.648458 15.4427411,103.017982 14.4474702,103.740224 C11.7953915,105.666369 11.2053734,109.385663 13.1416661,112.043549 C15.0682525,114.688606 18.7781364,115.285499 21.4288996,113.351624 C24.0905204,111.422189 24.6767133,107.705508 22.7501269,105.05601 C21.542412,103.397606 19.6391032,102.544497 17.7325463,102.609471 Z M43.7098355,103.144009 C42.3704225,103.09897 41.0313938,103.700648 40.1831351,104.868408 C38.8252626,106.728928 39.2442309,109.338808 41.1033679,110.699494 C42.9733626,112.054424 45.587049,111.640712 46.946073,109.776904 C48.3008197,107.910461 47.8836821,105.292481 46.0181292,103.940676 C45.3180527,103.429925 44.5134841,103.171037 43.7098355,103.144009 Z M96.9265213,103.144009 C96.1221028,103.171035 95.3158575,103.429925 94.6156586,103.940676 C92.754712,105.292481 92.3421596,107.910462 93.6954258,109.776904 C95.0521467,111.640713 97.6582865,112.052615 99.5304199,110.699494 C101.397618,109.343906 101.809512,106.728928 100.450653,104.868408 C99.6044498,103.700648 98.2672201,103.098963 96.9265213,103.144009 Z M31.6902631,104.10515 C30.4074076,104.10515 29.1259089,104.594045 28.1481394,105.575128 C26.1881573,107.532687 26.1881573,110.708458 28.1481394,112.662893 C30.1049958,114.619794 33.2756738,114.619794 35.240099,112.662893 C37.1936639,110.705169 37.1936639,107.532687 35.240099,105.575128 C34.2578864,104.594045 32.9731186,104.10515 31.6902631,104.10515 Z M94.7570353,114.16371 C94.1064028,114.209631 93.4521761,114.381987 92.8343142,114.695678 C90.3717515,115.954227 89.3910616,118.966162 90.649405,121.441647 C91.9088999,123.906771 94.9283318,124.87963 97.3943493,123.620917 C99.8537863,122.36944 100.838486,119.353578 99.5766882,116.887796 C98.6426786,115.03994 96.7089327,114.025961 94.7570353,114.16371 Z M90.8344796,126.144552 C90.0657126,126.078197 89.2701869,126.161433 88.4902002,126.41439 C85.3735424,127.430835 83.6603673,130.774203 84.6704639,133.89277 C85.6800669,137.014471 89.0421749,138.722939 92.155707,137.706495 C95.2768066,136.691366 96.9873903,133.34214 95.980584,130.225541 C95.2156086,127.886609 93.1407808,126.343608 90.8344796,126.144552 Z" id="Shape" fill="#C53753"></path>
            <path d="M51.1816851,3.02045704 C50.4119415,2.95620828 49.6187211,3.04183903 48.8374858,3.29801182 C45.7271857,4.30296575 44.0097105,7.65788356 45.0281622,10.7714315 C46.0401983,13.894848 49.397276,15.6059224 52.5054375,14.5878103 C55.6285691,13.5729878 57.3377993,10.2209478 56.3224731,7.10411032 C55.5682575,4.7566136 53.4909146,3.21320345 51.1816851,3.02045704 Z M45.5242481,16.8390874 C44.8746736,16.8858909 44.2229711,17.0612339 43.6067345,17.3762071 C41.1409659,18.6278764 40.1617282,21.6423277 41.4244689,24.1094814 C42.675531,26.5815693 45.6900694,27.5622623 48.1563316,26.2990796 C50.6110784,25.0441208 51.6059033,22.0311103 50.3540186,19.5606671 C49.4094296,17.7140019 47.4729716,16.6986912 45.5242481,16.8390874 Z M122.84941,26.5149562 C121.706161,26.552878 120.559497,26.9210089 119.564446,27.645735 C116.906043,29.5783387 116.32791,33.2910957 118.250976,35.9441083 C120.177332,38.5987657 123.894738,39.1868733 126.548207,37.2624934 C129.208256,35.329891 129.796055,31.6129181 127.856538,28.9615503 C126.65565,27.3065007 124.754828,26.451751 122.84941,26.5149562 Z M109.308575,26.8696092 C108.026668,26.8696092 106.742704,27.3585162 105.761431,28.3396209 C103.805464,30.2936067 103.805464,33.4686282 105.761431,35.4275482 C107.723978,37.3798891 110.891321,37.3806089 112.850578,35.4249166 C114.81477,33.4692861 114.81477,30.2984791 112.850578,28.3395591 C111.870949,27.3584543 110.590481,26.8695474 109.308575,26.8695474 L109.308575,26.8696092 Z M97.5824381,29.5038096 C96.2422615,29.4585719 94.9063488,30.0604613 94.0584271,31.2282474 C92.7052072,33.0967051 93.1186707,35.7046918 94.9811987,37.0517577 C96.8466879,38.4152713 99.4595453,38.0027435 100.813423,36.1342857 C102.172236,34.265828 101.760356,31.660719 99.8932218,30.300495 C99.1911951,29.7922613 98.3865435,29.5309483 97.5824381,29.5038096 Z M43.7789504,29.5064412 C42.9739672,29.5336786 42.1693906,29.7935561 41.4681667,30.3005568 C39.6090933,31.6607809 39.1901393,34.2666083 40.5479654,36.1317778 C41.9051334,38.003525 44.5159549,38.4073159 46.38276,37.0569591 C48.2482492,35.7033141 48.6653726,33.0967669 47.3106721,31.2283092 C46.4613106,30.0605231 45.1205905,29.4610495 43.7789504,29.5064412 Z M88.1516621,33.235442 C86.8004162,33.1377559 85.4566758,33.8377354 84.807579,35.1243554 C83.9220474,36.8431391 84.6109137,38.9390895 86.3189713,39.804238 C88.0398604,40.6825447 90.1335182,39.998526 91.0073699,38.2879662 C91.8762865,36.572472 91.191246,34.4732334 89.4805562,33.6080849 C89.0535415,33.3901529 88.6020773,33.2680032 88.1516621,33.235442 Z M80.1268923,37.815095 C79.0089175,37.9096232 78.0025944,38.6576287 77.638751,39.788818 C77.1458933,41.3020056 77.9773224,42.9274493 79.4817226,43.4175905 C80.993032,43.9027974 82.6189819,43.0822629 83.1085494,41.5723648 C83.5949913,40.0624668 82.773164,38.4355848 81.2630062,37.9487332 C80.8854667,37.8249676 80.4995506,37.7835878 80.1268923,37.815095 Z M43.8586328,40.2051511 C42.9659657,40.2069933 42.073134,40.5485987 41.396195,41.2254212 C40.0339274,42.5774214 40.0403431,44.7888134 41.396195,46.1391689 C42.7564887,47.5038338 44.9639026,47.5038338 46.3210706,46.1391689 C47.6833712,44.7888134 47.6833791,42.5762911 46.3262032,41.2177118 C45.6450686,40.5400669 44.7512921,40.2032998 43.8586249,40.2051511 L43.8586328,40.2051511 Z M74.6082556,42.6620243 C73.5049428,42.7108148 72.5592813,43.5256308 72.3720138,44.6640163 C72.1811865,45.9456204 73.0577532,47.1555336 74.3357942,47.3701759 C75.6409786,47.5673838 76.8561575,46.6926548 77.0578409,45.3913134 C77.2590308,44.1083935 76.3709093,42.898254 75.0889201,42.6877235 C74.9266759,42.6620257 74.7658727,42.6550518 74.6082556,42.6620257 L74.6082556,42.6620243 Z M45.4137204,49.1974118 C44.4896709,49.1653849 43.5701315,49.5775587 42.9949804,50.3847298 C42.0592748,51.6632089 42.3407221,53.4621955 43.6195857,54.3964243 C44.9047004,55.3364099 46.7028253,55.0440726 47.6396825,53.7616461 C48.5771978,52.4747787 48.2840903,50.6790409 47.0073653,49.744812 C46.5239674,49.3952157 45.9681516,49.2166306 45.4137204,49.1974118 Z M47.8658772,56.4292563 C46.9482776,56.363505 46.0357567,56.8440053 45.5885078,57.7219422 C44.993986,58.8849585 45.4554639,60.3067166 46.6218059,60.9009717 C47.7912734,61.5069046 49.2165677,61.033273 49.8013837,59.8704212 C50.3990312,58.6991811 49.9375532,57.279252 48.7680857,56.6836811 C48.4781038,56.5351176 48.1717437,56.4511725 47.8658772,56.4292563 Z M96.2638248,64.1031319 C96.1062854,64.0957633 95.9475642,64.1015529 95.7857319,64.1262639 C94.5004526,64.336301 93.6188902,65.5448773 93.8245218,66.840133 C94.0257116,68.1270003 95.2421448,69.0021004 96.5285756,68.8035768 C97.8150064,68.5973227 98.6981941,67.3926728 98.4974977,66.0974171 C98.3204493,64.9623409 97.366602,64.1551698 96.2638248,64.1031345 L96.2638248,64.1031319 Z M5.94275091,64.5605211 C2.66152988,64.5605211 0,67.2229708 0,70.4996798 C0,73.7828034 2.6590623,76.4414082 5.94275091,76.4414082 C9.22446545,76.4414082 11.8777906,73.7828034 11.8777906,70.4996798 C11.8777906,67.2229708 9.22446545,64.5605211 5.94275091,64.5605211 Z M102.042071,67.6213338 C100.45295,67.6213338 99.1657995,68.9159316 99.1657995,70.4996798 C99.1657995,72.083428 100.45295,73.3819653 102.042071,73.3728862 C103.634481,73.3728862 104.918342,72.083428 104.918342,70.4996798 C104.918342,68.9159316 103.634481,67.6213338 102.042071,67.6213338 Z M107.984821,72.9565543 C106.370332,73.0271741 104.970675,74.232607 104.71014,75.8965791 C104.40745,77.7893794 105.703443,79.5710341 107.601834,79.8697242 C109.505159,80.1723617 111.280683,78.8752757 111.583373,76.978528 C111.884418,75.0768459 110.592436,73.2945544 108.68911,72.9976735 C108.452428,72.9595412 108.215463,72.946462 107.984821,72.9565543 Z M16.9594599,74.0359334 C16.6267066,74.0209199 16.2859334,74.038565 15.9441534,74.092474 C13.2118863,74.5253772 11.3464387,77.0954934 11.7749748,79.8286063 C12.2107492,82.5625415 14.7784076,84.4287781 17.5095245,83.9919274 C20.2546217,83.5608334 22.1136544,80.9914791 21.6787026,78.2583649 C21.3014303,75.864589 19.2887261,74.1410394 16.9594599,74.0359347 L16.9594599,74.0359334 Z M27.7448324,80.3991346 C27.204063,80.3519099 26.6453414,80.4090032 26.09721,80.5867409 C23.9040265,81.3043536 22.7048453,83.659642 23.42143,85.8577114 C24.1358762,88.047886 26.4865123,89.2461003 28.6778862,88.5304612 C30.878637,87.823046 32.06951,85.4665235 31.3639471,83.2697698 C30.8279891,81.6291126 29.367142,80.5408097 27.7448324,80.3991346 Z M113.616555,80.3991346 C111.993583,80.541111 110.532905,81.6320114 109.99744,83.2774805 C109.293358,85.4678195 110.489928,87.823046 112.686073,88.5304612 C114.878927,89.2461003 117.228576,88.047886 117.942529,85.8577114 C118.664707,83.659642 117.453742,81.3043536 115.264177,80.5867409 C114.715964,80.4089413 114.157545,80.3518086 113.616555,80.3991346 Z M36.6332558,84.2437824 C36.1819996,84.2748356 35.7302446,84.393805 35.3017914,84.6112856 C33.5892921,85.4830119 32.9023802,87.586673 33.7775479,89.2988776 C34.6546897,91.0181548 36.7477093,91.6946483 38.4582346,90.820289 C40.1824137,89.9497127 40.8583656,87.8500821 39.9799078,86.1429762 C39.3293305,84.8573418 37.9870232,84.1506397 36.6332558,84.2437824 Z M45.2106604,86.0555982 C44.6569898,86.0738485 44.1015044,86.2501533 43.6195857,86.6004273 C42.3387481,87.5372878 42.0579377,89.3348362 42.982128,90.6172627 C43.9203012,91.9093933 45.7183024,92.1907515 47.0073653,91.2571805 C48.2840903,90.3229516 48.578452,88.517632 47.6422528,87.2352055 C47.0558943,86.436053 46.1334425,86.0251778 45.2106604,86.0555982 Z M52.4437481,86.369132 C51.8382662,86.3688859 51.2315092,86.5968509 50.7678519,87.0578784 C49.84251,87.989969 49.84251,89.4844681 50.7678519,90.4065257 C51.6996094,91.3323991 53.1922889,91.3273095 54.1145052,90.4116573 C55.0429726,89.4800601 55.0429726,87.9835465 54.1145052,87.0578692 C53.653397,86.5978272 53.0492299,86.3693688 52.4437481,86.3691228 L52.4437481,86.369132 Z M119.71353,90.2934484 C117.767612,90.1572537 115.831207,91.1728657 114.881189,93.0227375 C113.624369,95.4854503 114.609653,98.503828 117.078876,99.7637198 C119.54481,101.0172 122.554123,100.036732 123.815878,97.5715518 C125.075988,95.1024244 124.093481,92.0828546 121.625903,90.8254286 C121.011064,90.512058 120.362169,90.3388467 119.71353,90.2934484 Z M82.2191921,91.115833 C81.9110896,91.1380571 81.6007143,91.2212035 81.3067027,91.3702577 C80.1584563,91.9684603 79.6898836,93.3890065 80.2811153,94.5518583 C80.8723471,95.7199733 82.3039333,96.1875601 83.4658336,95.5875484 C84.6224764,94.9886879 85.0949696,93.5682035 84.4991317,92.403378 C84.0533647,91.5277858 83.1435008,91.0491501 82.2191921,91.115833 Z M80.6152662,97.4533337 C80.2424856,97.4214646 79.8595503,97.4618865 79.4817226,97.584402 C77.9792965,98.0714195 77.1458933,99.6950119 77.638751,101.208035 C78.1238768,102.714643 79.7528483,103.540318 81.2630062,103.0584 C82.773164,102.562996 83.5949913,100.937511 83.1085494,99.4244881 C82.7413737,98.2945317 81.7336122,97.5489605 80.6152662,97.453335 L80.6152662,97.4533337 Z M123.265814,102.611227 C121.360156,102.547292 119.457005,103.399996 118.250976,105.055251 C116.316395,107.70481 116.906043,111.424866 119.564446,113.351055 C122.226141,115.284974 125.935117,114.688068 127.856538,112.04295 C129.796055,109.385003 129.204966,105.665625 126.548207,103.739436 C125.553156,103.017177 124.409209,102.649586 123.265814,102.611227 Z M76.7699568,104.484722 C76.5388454,104.47459 76.3028646,104.488011 76.0656692,104.525841 C74.1764913,104.822064 72.8810746,106.605528 73.1842577,108.498986 C73.4818476,110.396885 75.2559127,111.701249 77.1580865,111.395322 C79.0556541,111.094 80.3525316,109.31292 80.04721,107.411896 C79.7902726,105.752243 78.3877445,104.555327 76.7699568,104.484722 Z M70.6832638,111.834784 C68.3731171,111.834784 66.5063738,113.705154 66.5063738,116.010956 C66.5063738,118.316922 68.3731171,120.189697 70.6832638,120.189697 C72.990943,120.189697 74.8550134,118.316922 74.8550134,116.010956 C74.8550134,113.705154 72.990943,111.834784 70.6832638,111.834784 Z M61.9130802,119.431561 C59.5836837,119.537037 57.5657009,121.265767 57.1861255,123.661702 C56.7511737,126.383959 58.6172801,128.958433 61.3553049,129.387554 C64.0800048,129.825062 66.6521872,127.960532 67.0795718,125.221663 C67.5184717,122.489701 65.6562108,119.925773 62.9283853,119.4881 C62.5867699,119.434073 62.2458506,119.416494 61.9130802,119.43156 L61.9130802,119.431561 Z M50.16638,126.144276 C47.8629806,126.343336 45.7871893,127.886373 45.0281622,130.225358 C44.0097105,133.342034 45.7189604,136.691336 48.8374858,137.706488 C51.9624269,138.722955 55.3168527,137.014448 56.3224731,133.892676 C57.3377993,130.774032 55.6285691,127.430588 52.5054375,126.41412 C51.7271226,126.161155 50.9341798,126.077922 50.16638,126.144276 Z" id="Shape" fill="#65CBB8"></path>
        </g>
    </g>
</svg>