<?xml version="1.0" encoding="UTF-8"?>
<svg width="86px" height="92px" viewBox="0 0 86 92" version="1.1" xmlns="http://www.w3.org/2000/svg" xmlns:xlink="http://www.w3.org/1999/xlink">
    <!-- Generator: Sketch 53.1 (72631) - https://sketchapp.com -->
    <title>prp</title>
    <desc>Created with Sketch.</desc>
    <defs>
        <path d="M49,5.19615242 L70.8371686,17.8038476 C76.406388,21.0192379 79.8371686,26.9615242 79.8371686,33.3923048 L79.8371686,58.6076952 C79.8371686,65.0384758 76.406388,70.9807621 70.8371686,74.1961524 L49,86.8038476 C43.4307806,90.0192379 36.5692194,90.0192379 31,86.8038476 L9.16283143,74.1961524 C3.59361204,70.9807621 0.162831426,65.0384758 0.162831426,58.6076952 L0.162831426,33.3923048 C0.162831426,26.9615242 3.59361204,21.0192379 9.16283143,17.8038476 L31,5.19615242 C36.5692194,1.98076211 43.4307806,1.98076211 49,5.19615242 Z" id="path-1"></path>
        <filter x="-6.9%" y="-0.8%" width="113.8%" height="105.9%" filterUnits="objectBoundingBox" id="filter-2">
            <feOffset dx="0" dy="2" in="SourceAlpha" result="shadowOffsetOuter1"></feOffset>
            <feGaussianBlur stdDeviation="1.5" in="shadowOffsetOuter1" result="shadowBlurOuter1"></feGaussianBlur>
            <feColorMatrix values="0 0 0 0 0   0 0 0 0 0   0 0 0 0 0  0 0 0 0.221524004 0" type="matrix" in="shadowBlurOuter1"></feColorMatrix>
        </filter>
    </defs>
    <g id="Page-1" stroke="none" stroke-width="1" fill="none" fill-rule="evenodd">
        <g id="Enabled" transform="translate(3.000000, -2.000000)">
            <g id="prp">
                <g id="Polygon">
                    <use fill="black" fill-opacity="1" filter="url(#filter-2)" xlink:href="#path-1"></use>
                    <use fill="#C60018" fill-rule="evenodd" xlink:href="#path-1"></use>
                </g>
                <g id="Prereg-Plus-Icon" transform="translate(16.000000, 29.000000)" fill="#FFFFFF">
                    <g id="Prereg-Icon">
                        <g>
                            <polygon id="Path" points="0 20.4566182 18 34.2788976 45.5526853 6.11216438 37.7082607 0 18 21.4566182 5.91997455 12.3836238"></polygon>
                            <path d="M32,30.2726636 L32,27.1941301 C32,26.9179877 32.2238576,26.6941301 32.5,26.6941301 L35.4451067,26.6941301 C35.7212491,26.6941301 35.9451067,26.4702725 35.9451067,26.1941301 L35.9451067,23.2490234 C35.9451067,22.9728811 36.1689643,22.7490234 36.4451067,22.7490234 L39.5548933,22.7490234 C39.8310357,22.7490234 40.0548933,22.9728811 40.0548933,23.2490234 L40.0548933,26.1941301 C40.0548933,26.4702725 40.2787509,26.6941301 40.5548933,26.6941301 L43.5,26.6941301 C43.7761424,26.6941301 44,26.9179877 44,27.1941301 L44,30.2726636 C44,30.548806 43.7761424,30.7726636 43.5,30.7726636 L40.5548933,30.7726636 C40.2787509,30.7726636 40.0548933,30.9965213 40.0548933,31.2726636 L40.0548933,34.2490234 C40.0548933,34.5251658 39.8310357,34.7490234 39.5548933,34.7490234 L36.4451067,34.7490234 C36.1689643,34.7490234 35.9451067,34.5251658 35.9451067,34.2490234 L35.9451067,31.2726636 C35.9451067,30.9965213 35.7212491,30.7726636 35.4451067,30.7726636 L32.5,30.7726636 C32.2238576,30.7726636 32,30.548806 32,30.2726636 Z" id="+" fill-rule="nonzero"></path>
                        </g>
                    </g>
                </g>
            </g>
        </g>
    </g>
</svg>