<?xml version="1.0" encoding="UTF-8"?>
<svg width="222px" height="117px" viewBox="0 0 222 117" version="1.1" xmlns="http://www.w3.org/2000/svg" xmlns:xlink="http://www.w3.org/1999/xlink">
    <!-- Generator: Sketch 53.1 (72631) - https://sketchapp.com -->
    <title>Snail</title>
    <desc>Created with Sketch.</desc>
    <g id="Page-1" stroke="none" stroke-width="1" fill="none" fill-rule="evenodd">
        <g id="Snail" transform="translate(-6.000000, -6.000000)" fill="#FFFFFF">
            <path d="M6.72674306,120.448271 C11.7035475,112.940219 15.6176143,107.898306 18.4689434,105.322532 C21.3202726,102.746759 26.3886489,99.194359 33.6740722,94.6653325 C41.0216636,105.280947 52.4063977,110.588754 67.8282745,110.588754 C90.9610898,110.588754 99.8767442,89.3361025 103.280445,80.937115 C106.684146,72.5381275 106.728251,46.8925469 92.9307248,35.0419725 C79.1331983,23.191398 63.3124019,23.1504274 53.0751459,26.4093074 C42.8378899,29.6681874 32.7176084,44.8888874 30.8639084,51.172061 C29.0102083,57.4552345 30.7580547,74.8316245 38.3505377,80.937115 C45.9430208,87.0426055 65.1945335,92.0101687 72.6635206,74.496421 C80.1325077,56.9826734 72.5765693,45.3778308 67.8282745,41.9073414 C63.0799797,38.436852 49.698307,36.0286802 43.1555399,41.9073414 C36.6127727,47.7860026 36.0444391,53.3148604 36.0444391,58.6574302 C36.0444391,64 39.0571379,74.823095 46.5767072,74.496421 C54.0962765,74.1697471 60.0694499,69.0336137 60.0694499,58.6574302 C60.0694499,53.4712245 58.3066069,51.2274522 56.8387612,49.4005711 C55.3698479,47.5723612 54.1949471,46.1625791 51.4852184,45.1988876 C46.0677305,43.2722051 41.0662512,49.6820363 40.5734656,51.172061 C40.0806799,52.6620857 39.1494812,60.0844569 43.1555399,62.0422285 C47.1615986,64 51.4765619,61.5476711 51.4765619,57.6789701 C51.4765619,53.8102692 51.5750568,52.6620857 48.3620874,51.172061 C46.2201078,50.1787112 44.7190855,51.2219205 43.8590205,54.3016888 C46.1897266,51.7927627 47.8010475,51.3916248 48.692983,53.0982753 C49.3716407,54.3968349 49.8935238,56.108971 49.3251371,57.6789701 C48.7730085,59.2040614 47.156062,60.6063598 46.0677305,60.6063598 C43.8590205,60.6063598 41.0662512,57.5317479 42.4626358,52.8645558 C43.8590205,48.1973637 48.3283436,45.2608694 53.0751459,48.168715 C57.8219482,51.0765605 59.4179068,62.8101649 54.5699883,67.7392027 C49.7220698,72.6682406 43.9691263,73.436177 40.5734656,67.7392027 C37.1778048,62.0422285 37.4826954,54.8609859 39.0280805,51.172061 C40.5734656,47.4831361 46.5203647,39.9538175 55.9514001,40.9305795 C65.3824354,41.9073414 70.2096388,47.9488558 71.4365797,54.9955421 C72.6635206,62.0422285 71.5871221,70.9820901 64.6534932,77.2871384 C57.7198642,83.5921867 52.5186389,85.4601955 45.149118,81.9267877 C37.7795971,78.3933799 35.0080711,69.3425698 33.6740722,64 C32.3400734,58.6574302 33.2293678,43.7692822 46.0677305,35.0419725 C58.9060932,26.3146627 71.2079363,26.8610892 82.4563598,32.7284703 C93.7047834,38.5958515 103.00106,54.8155704 101.213039,71.3193956 C99.4250178,87.8232209 86.3663123,104.04064 74.4444096,105.322532 C62.5225068,106.604425 53.6284308,106.984742 46.5767072,101.70142 C39.5249836,96.4180985 32.1035067,89.5444602 29.4126082,80.4319279 C26.7217097,71.3193956 25.8260012,53.1343248 29.4126082,42.6469139 C32.9992152,32.159503 50.0667256,13.5378969 64.6534932,9.63813152 C79.2402608,5.73836613 94.56163,6.42957841 104.066176,9.63813152 C113.570723,12.8466846 132.164786,29.68857 135.798178,38.1404513 C139.43157,46.5923325 145.628711,60.3772013 146.917942,62.0422285 C148.207174,63.7072556 151.942814,64.9792585 151.942814,66.9834723 C151.942814,68.080644 148.653841,75.3777017 143.380418,81.9267877 C139.020831,87.3409774 133.252765,92.1610983 128.56455,94.0763811 C121.668383,96.8936811 111.72304,98.3023312 98.7285233,98.3023312 C112.485161,98.7398846 122.108973,98.0156724 127.599961,96.1296947 C135.836442,93.3007282 151.594711,78.2408229 155.557723,67.1541828 C158.861528,65.5307723 169.206143,69.538543 174.317416,63.0199433 C179.42869,56.5013436 179.958795,53.4457363 177.927039,51.172061 C175.895282,48.8983857 168.867328,50.487193 166.452613,49.4005711 C164.037897,48.3139491 165.559168,46.638583 167.161181,45.1988876 C168.763194,43.7591922 171.975142,47.7687517 174.317416,47.7687517 C176.65969,47.7687517 178.978949,46.5640351 178.978949,44.6054745 C178.978949,42.6469139 177.915342,39.3259256 174.868273,36.027198 C171.821204,32.7284703 161.547345,20.5356667 160.436198,19.7063629 C159.325052,18.8770591 155.226827,18.811409 155.226827,16.3087828 C155.226827,13.8061567 155.17476,12.6897281 157.097854,11.1639298 C159.020949,9.63813152 162.735083,11.3959689 162.735083,12.388266 C162.735083,13.3805631 161.58847,15.4130743 162.735083,16.9256672 C163.499491,17.9340624 169.999603,23.9728308 182.235419,35.0419725 C185.841646,33.9816394 188.61228,33.7165561 190.547322,34.2467227 C193.449886,35.0419725 197.282114,36.027198 198.441932,36.027198 C199.215144,36.027198 205.552766,30.0581976 217.454798,18.1201967 C218.666935,17.460426 219.273003,16.8566214 219.273003,16.3087828 C219.273003,15.487025 218.354279,12.1788649 220.802197,11.1639298 C223.250115,10.1489947 224.58915,11.3593708 225.723689,12.388266 C226.858228,13.4171611 228.033515,16.5340305 226.279074,18.1201967 C224.524632,19.7063629 222.838481,17.4618095 222.068036,19.1226809 C221.297591,20.7835523 203.445298,37.3585553 203.445298,41.9073414 C203.445298,46.4561275 203.716576,47.7687517 204.422126,47.7687517 C205.127676,47.7687517 210.482685,47.1586587 211.433856,46.450468 C212.385027,45.7422772 213.838762,43.9473072 214.983488,45.1988876 C216.128214,46.450468 217.27294,49.4005711 216.128214,49.4005711 C214.983488,49.4005711 208.237376,48.8205923 206.798734,49.9963266 C205.360092,51.172061 204.422126,52.3266938 204.422126,58.1633469 C204.422126,64 205.203136,77.927038 201.822534,85.1183623 C198.441932,92.3096866 199.908495,92.3334565 196.403762,97.7842992 C192.899029,103.235142 183.435231,111.528935 182.235419,113.144153 C181.035607,114.759371 180.527008,116.383286 180.781308,118.415779 C180.950841,119.770773 181.274312,120.448271 181.751721,120.448271 C176.061797,122.051554 170.677484,122.853196 165.598784,122.853196 C157.980735,122.853196 149.674491,120.448271 139.230847,120.448271 C128.787203,120.448271 123.825348,122.853196 117,122.853196 C110.174652,122.853196 100.404864,119.192657 91.8413022,119.820464 C83.2777404,120.448271 76.7942295,122.853196 69.5708347,122.853196 C62.3474399,122.853196 55.2074283,119.820464 46.0677305,119.820464 C36.9280326,119.820464 30.0498667,122.853196 23.0539834,122.853196 C18.3900612,122.853196 12.9476478,122.051554 6.72674306,120.448271 Z" id="Path"></path>
        </g>
    </g>
</svg>